Onset in Beats,Durations in Beats,Voice,Pitch (C4=60),Velocity,Onset in Seconds,Durations in Seconds
12.5,0.235416667,0,79,64,6.25,0.117708333
12.75,0.235416667,0,78,64,6.375,0.117708333
13,0.472916667,0,79,64,6.5,0.236458333
13.5,0.472916667,0,72,64,6.75,0.236458333
14,0.472916667,0,75,64,7,0.236458333
14.5,0.235416667,0,79,64,7.25,0.117708333
14.75,0.235416667,0,78,64,7.375,0.117708333
15,0.472916667,0,79,64,7.5,0.236458333
15.5,0.472916667,0,81,64,7.75,0.236458333
16,0.472916667,0,74,64,8,0.236458333
16.5,0.235416667,0,79,64,8.25,0.117708333
16.75,0.235416667,0,78,64,8.375,0.117708333
17,0.472916667,0,79,64,8.5,0.236458333
17.5,0.472916667,0,81,64,8.75,0.236458333
18,0.235416667,0,72,64,9,0.117708333
18.25,0.235416667,0,74,64,9.125,0.117708333
18.5,0.947916667,0,75,64,9.25,0.473958333
19.5,0.235416667,0,74,64,9.75,0.117708333
19.75,0.235416667,0,72,64,9.875,0.117708333
20,0.472916667,0,70,64,10,0.236458333
20.5,0.235416667,0,75,64,10.25,0.117708333
20.75,0.235416667,0,74,64,10.375,0.117708333
21,0.472916667,0,75,64,10.5,0.236458333
21.5,0.472916667,0,67,64,10.75,0.236458333
22,0.472916667,0,68,64,11,0.236458333
22.5,0.235416667,0,77,64,11.25,0.117708333
22.75,0.235416667,0,75,64,11.375,0.117708333
23,0.472916667,0,77,64,11.5,0.236458333
23.5,0.472916667,0,69,64,11.75,0.236458333
24,0.472916667,0,70,64,12,0.236458333
24.5,0.235416667,0,79,64,12.25,0.117708333
24.75,0.235416667,0,77,64,12.375,0.117708333
25,0.472916667,0,79,64,12.5,0.236458333
25.5,0.472916667,0,71,64,12.75,0.236458333
26,0.472916667,0,72,64,13,0.236458333
26.5,0.235416667,0,74,64,13.25,0.117708333
26.75,0.235416667,0,75,64,13.375,0.117708333
27,1.422916667,0,77,64,13.5,0.711458333
28.5,0.235416667,0,75,64,14.25,0.117708333
28.75,0.235416667,0,74,64,14.375,0.117708333
29,0.235416667,0,72,64,14.5,0.117708333
29.25,0.235416667,0,70,64,14.625,0.117708333
29.5,0.235416667,0,68,64,14.75,0.117708333
29.75,0.235416667,0,67,64,14.875,0.117708333
30,0.472916667,0,65,64,15,0.236458333
30.5,0.472916667,0,80,64,15.25,0.236458333
31,0.472916667,0,79,64,15.5,0.236458333
31.5,0.472916667,0,77,64,15.75,0.236458333
32,0.472916667,0,75,64,16,0.236458333
32.5,0.472916667,0,74,64,16.25,0.236458333
33,0.472916667,0,75,64,16.5,0.236458333
33.5,0.472916667,0,77,64,16.75,0.236458333
34,0.472916667,0,71,64,17,0.236458333
34.5,0.472916667,0,72,64,17.25,0.236458333
35,0.472916667,0,74,64,17.5,0.236458333
35.5,0.472916667,0,71,64,17.75,0.236458333
36,0.472916667,0,72,64,18,0.236458333
36.5,0.235416667,0,79,64,18.25,0.117708333
36.75,0.235416667,0,78,64,18.375,0.117708333
37,0.472916667,0,79,64,18.5,0.236458333
37.5,0.472916667,0,74,64,18.75,0.236458333
38,0.947916667,0,75,64,19,0.473958333
39.5,0.472916667,0,76,64,19.75,0.236458333
40,0.472916667,0,77,64,20,0.236458333
40.5,0.235416667,0,77,64,20.25,0.117708333
40.75,0.235416667,0,76,64,20.375,0.117708333
41,0.472916667,0,77,64,20.5,0.236458333
41.5,0.472916667,0,72,64,20.75,0.236458333
42,0.947916667,0,74,64,21,0.473958333
43.5,0.472916667,0,74,64,21.75,0.236458333
44,0.472916667,0,75,64,22,0.236458333
44.5,0.235416667,0,75,64,22.25,0.117708333
44.75,0.235416667,0,74,64,22.375,0.117708333
45,0.472916667,0,75,64,22.5,0.236458333
45.5,0.472916667,0,70,64,22.75,0.236458333
46,0.472916667,0,72,64,23,0.236458333
46.5,0.235416667,0,75,64,23.25,0.117708333
46.75,0.235416667,0,74,64,23.375,0.117708333
47,0.472916667,0,75,64,23.5,0.236458333
47.5,0.472916667,0,77,64,23.75,0.236458333
48,0.472916667,0,70,64,24,0.236458333
48.5,0.235416667,0,75,64,24.25,0.117708333
48.75,0.235416667,0,74,64,24.375,0.117708333
49,0.472916667,0,75,64,24.5,0.236458333
49.5,0.472916667,0,77,64,24.75,0.236458333
50,0.235416667,0,68,64,25,0.117708333
50.25,0.235416667,0,70,64,25.125,0.117708333
50.5,0.947916667,0,72,64,25.25,0.473958333
51.5,0.235416667,0,70,64,25.75,0.117708333
51.75,0.235416667,0,68,64,25.875,0.117708333
52,0.235416667,0,67,64,26,0.117708333
52.25,0.235416667,0,63,64,26.125,0.117708333
52.5,0.235416667,0,65,64,26.25,0.117708333
52.75,0.235416667,0,67,64,26.375,0.117708333
53,0.235416667,0,68,64,26.5,0.117708333
53.25,0.235416667,0,70,64,26.625,0.117708333
53.5,0.235416667,0,72,64,26.75,0.117708333
53.75,0.235416667,0,74,64,26.875,0.117708333
54,0.235416667,0,75,64,27,0.117708333
54.25,0.235416667,0,74,64,27.125,0.117708333
54.5,0.235416667,0,72,64,27.25,0.117708333
54.75,0.235416667,0,74,64,27.375,0.117708333
55,0.235416667,0,75,64,27.5,0.117708333
55.25,0.235416667,0,77,64,27.625,0.117708333
55.5,0.235416667,0,79,64,27.75,0.117708333
55.75,0.235416667,0,81,64,27.875,0.117708333
56,0.235416667,0,82,64,28,0.117708333
56.25,0.235416667,0,65,64,28.125,0.117708333
56.5,0.235416667,0,67,64,28.25,0.117708333
56.75,0.235416667,0,68,64,28.375,0.117708333
57,0.235416667,0,70,64,28.5,0.117708333
57.25,0.235416667,0,72,64,28.625,0.117708333
57.5,0.235416667,0,74,64,28.75,0.117708333
57.75,0.235416667,0,76,64,28.875,0.117708333
58,0.235416667,0,77,64,29,0.117708333
58.25,0.235416667,0,75,64,29.125,0.117708333
58.5,0.235416667,0,74,64,29.25,0.117708333
58.75,0.235416667,0,75,64,29.375,0.117708333
59,0.235416667,0,77,64,29.5,0.117708333
59.25,0.235416667,0,79,64,29.625,0.117708333
59.5,0.235416667,0,81,64,29.75,0.117708333
59.75,0.235416667,0,83,64,29.875,0.117708333
60,0.472916667,0,84,64,30,0.236458333
60.5,0.235416667,0,83,64,30.25,0.117708333
60.75,0.235416667,0,81,64,30.375,0.117708333
61,0.235416667,0,79,64,30.5,0.117708333
61.25,0.235416667,0,77,64,30.625,0.117708333
61.5,0.235416667,0,75,64,30.75,0.117708333
61.75,0.235416667,0,74,64,30.875,0.117708333
62,0.472916667,0,72,64,31,0.236458333
62.5,0.472916667,0,75,64,31.25,0.236458333
63,0.472916667,0,74,64,31.5,0.236458333
63.5,0.472916667,0,72,64,31.75,0.236458333
64,0.472916667,0,70,64,32,0.236458333
64.5,0.472916667,0,69,64,32.25,0.236458333
65,0.472916667,0,70,64,32.5,0.236458333
65.5,0.472916667,0,72,64,32.75,0.236458333
66,0.472916667,0,66,64,33,0.236458333
66.5,0.472916667,0,67,64,33.25,0.236458333
67,0.472916667,0,69,64,33.5,0.236458333
67.5,0.472916667,0,66,64,33.75,0.236458333
68,0.472916667,0,67,64,34,0.236458333
68.5,0.235416667,0,74,64,34.25,0.117708333
68.75,0.235416667,0,72,64,34.375,0.117708333
69,0.497916667,0,74,64,34.5,0.248958333
70.5,0.235416667,0,76,64,35.25,0.117708333
70.75,0.235416667,0,74,64,35.375,0.117708333
71,0.497916667,0,76,64,35.5,0.248958333
72.5,0.235416667,0,78,64,36.25,0.117708333
72.75,0.235416667,0,76,64,36.375,0.117708333
73,0.497916667,0,78,64,36.5,0.248958333
74.5,0.235416667,0,67,64,37.25,0.117708333
74.75,0.235416667,0,65,64,37.375,0.117708333
75,0.497916667,0,67,64,37.5,0.248958333
76.5,0.235416667,0,69,64,38.25,0.117708333
76.75,0.235416667,0,67,64,38.375,0.117708333
77,0.497916667,0,69,64,38.5,0.248958333
78.5,0.235416667,0,71,64,39.25,0.117708333
78.75,0.235416667,0,69,64,39.375,0.117708333
79,0.497916667,0,71,64,39.5,0.248958333
80.5,0.235416667,0,72,64,40.25,0.117708333
80.75,0.235416667,0,71,64,40.375,0.117708333
81,0.472916667,0,72,64,40.5,0.236458333
81.5,0.472916667,0,67,64,40.75,0.236458333
82,0.472916667,0,68,64,41,0.236458333
82.5,0.235416667,0,72,64,41.25,0.117708333
82.75,0.235416667,0,71,64,41.375,0.117708333
83,0.472916667,0,72,64,41.5,0.236458333
83.5,0.472916667,0,74,64,41.75,0.236458333
84,0.472916667,0,67,64,42,0.236458333
84.5,0.235416667,0,72,64,42.25,0.117708333
84.75,0.235416667,0,71,64,42.375,0.117708333
85,0.472916667,0,72,64,42.5,0.236458333
85.5,0.472916667,0,74,64,42.75,0.236458333
86,0.235416667,0,65,64,43,0.117708333
86.25,0.235416667,0,67,64,43.125,0.117708333
86.5,0.947916667,0,68,64,43.25,0.473958333
87.5,0.235416667,0,67,64,43.75,0.117708333
87.75,0.235416667,0,65,64,43.875,0.117708333
88,0.472916667,0,63,64,44,0.236458333
88.5,0.235416667,0,72,64,44.25,0.117708333
88.75,0.235416667,0,71,64,44.375,0.117708333
89,0.472916667,0,72,64,44.5,0.236458333
89.5,0.472916667,0,67,64,44.75,0.236458333
91.5,0.472916667,0,69,64,45.75,0.236458333
92,0.472916667,0,70,64,46,0.236458333
92.5,0.235416667,0,70,64,46.25,0.117708333
92.75,0.235416667,0,69,64,46.375,0.117708333
93,0.472916667,0,70,64,46.5,0.236458333
93.5,0.472916667,0,65,64,46.75,0.236458333
94,0.947916667,0,67,64,47,0.473958333
95.5,0.947916667,0,67,64,47.75,0.473958333
96.5,0.235416667,0,68,64,48.25,0.117708333
96.75,0.235416667,0,70,64,48.375,0.117708333
97,0.235416667,0,72,64,48.5,0.117708333
97.25,0.235416667,0,71,64,48.625,0.117708333
97.5,0.235416667,0,72,64,48.75,0.117708333
97.75,0.235416667,0,68,64,48.875,0.117708333
98,2.372916667,0,65,64,49,1.186458333
100.5,0.235416667,0,74,64,50.25,0.117708333
100.75,0.235416667,0,72,64,50.375,0.117708333
101,0.472916667,0,74,64,50.5,0.236458333
101.5,0.472916667,0,65,64,50.75,0.236458333
102,0.472916667,0,63,64,51,0.236458333
102.5,0.235416667,0,75,64,51.25,0.117708333
102.75,0.235416667,0,74,64,51.375,0.117708333
103,0.472916667,0,75,64,51.5,0.236458333
103.5,0.472916667,0,67,64,51.75,0.236458333
104,0.472916667,0,65,64,52,0.236458333
104.5,0.235416667,0,77,64,52.25,0.117708333
104.75,0.235416667,0,75,64,52.375,0.117708333
105,0.472916667,0,77,64,52.5,0.236458333
105.5,0.472916667,0,68,64,52.75,0.236458333
106,0.235416667,0,67,64,53,0.117708333
106.25,0.235416667,0,77,64,53.125,0.117708333
106.5,0.235416667,0,75,64,53.25,0.117708333
106.75,0.235416667,0,74,64,53.375,0.117708333
107,0.235416667,0,72,64,53.5,0.117708333
107.25,0.235416667,0,71,64,53.625,0.117708333
107.5,0.235416667,0,69,64,53.75,0.117708333
107.75,0.235416667,0,67,64,53.875,0.117708333
108,0.472916667,0,72,64,54,0.236458333
108.5,0.472916667,0,77,64,54.25,0.236458333
109,0.472916667,0,75,64,54.5,0.236458333
109.5,0.472916667,0,74,64,54.75,0.236458333
110.5,0.472916667,0,68,64,55.25,0.236458333
111,0.472916667,0,67,64,55.5,0.236458333
111.5,0.472916667,0,65,64,55.75,0.236458333
112,0.472916667,0,67,64,56,0.236458333
112.5,0.235416667,0,65,64,56.25,0.117708333
112.75,0.235416667,0,63,64,56.375,0.117708333
113,0.472916667,0,65,64,56.5,0.236458333
113.5,0.472916667,0,62,64,56.75,0.236458333
114,0.472916667,0,68,64,57,0.236458333
114.5,0.472916667,0,67,64,57.25,0.236458333
115.5,0.472916667,0,69,64,57.75,0.236458333
116,0.472916667,0,71,64,58,0.236458333
116.5,0.472916667,0,72,64,58.25,0.236458333
117,0.235416667,0,65,64,58.5,0.117708333
117.25,0.235416667,0,63,64,58.625,0.117708333
117.5,0.235416667,0,62,64,58.75,0.117708333
117.75,0.235416667,0,60,64,58.875,0.117708333
118,0.472916667,0,60,64,59,0.236458333
118.5,0.235416667,0,72,64,59.25,0.117708333
118.75,0.235416667,0,71,64,59.375,0.117708333
119,0.472916667,0,72,64,59.5,0.236458333
119.5,0.472916667,0,67,64,59.75,0.236458333
120,0.472916667,0,68,64,60,0.236458333
120.5,0.235416667,0,72,64,60.25,0.117708333
120.75,0.235416667,0,71,64,60.375,0.117708333
121,0.472916667,0,72,64,60.5,0.236458333
121.5,0.472916667,0,74,64,60.75,0.236458333
122,0.472916667,0,67,64,61,0.236458333
122.5,0.235416667,0,72,64,61.25,0.117708333
122.75,0.235416667,0,71,64,61.375,0.117708333
123,0.472916667,0,72,64,61.5,0.236458333
123.5,0.472916667,0,74,64,61.75,0.236458333
124,0.235416667,0,65,64,62,0.117708333
124.25,0.235416667,0,67,64,62.125,0.117708333
124.5,0.947916667,0,68,64,62.25,0.473958333
125.5,0.235416667,0,67,64,62.75,0.117708333
125.75,0.235416667,0,65,64,62.875,0.117708333
126,1.897916667,0,64,64,63,0.948958333
130.5,0.235416667,1,72,64,65.25,0.117708333
130.75,0.235416667,1,71,64,65.375,0.117708333
131,0.472916667,1,72,64,65.5,0.236458333
131.5,0.472916667,1,67,64,65.75,0.236458333
132,0.472916667,1,68,64,66,0.236458333
132.5,0.235416667,1,72,64,66.25,0.117708333
132.75,0.235416667,1,71,64,66.375,0.117708333
133,0.472916667,1,72,64,66.5,0.236458333
133.5,0.472916667,1,74,64,66.75,0.236458333
134,0.472916667,1,67,64,67,0.236458333
134.5,0.235416667,1,72,64,67.25,0.117708333
134.75,0.235416667,1,71,64,67.375,0.117708333
135,0.472916667,1,72,64,67.5,0.236458333
135.5,0.472916667,1,74,64,67.75,0.236458333
136,0.235416667,1,65,64,68,0.117708333
136.25,0.235416667,1,67,64,68.125,0.117708333
136.5,0.947916667,1,68,64,68.25,0.473958333
137.5,0.235416667,1,67,64,68.75,0.117708333
137.75,0.235416667,1,65,64,68.875,0.117708333
138,0.235416667,1,63,64,69,0.117708333
138.25,0.235416667,1,72,64,69.125,0.117708333
138.5,0.235416667,1,71,64,69.25,0.117708333
138.75,0.235416667,1,69,64,69.375,0.117708333
139,0.235416667,1,67,64,69.5,0.117708333
139.25,0.235416667,1,65,64,69.625,0.117708333
139.5,0.235416667,1,63,64,69.75,0.117708333
139.75,0.235416667,1,62,64,69.875,0.117708333
140,0.472916667,1,60,64,70,0.236458333
140.5,0.472916667,1,75,64,70.25,0.236458333
141,0.472916667,1,74,64,70.5,0.236458333
141.5,0.472916667,1,72,64,70.75,0.236458333
142,0.472916667,1,70,64,71,0.236458333
142.5,0.472916667,1,69,64,71.25,0.236458333
143,0.472916667,1,70,64,71.5,0.236458333
143.5,0.472916667,1,72,64,71.75,0.236458333
144,0.472916667,1,66,64,72,0.236458333
144.5,0.472916667,1,67,64,72.25,0.236458333
145,0.472916667,1,69,64,72.5,0.236458333
145.5,0.472916667,1,66,64,72.75,0.236458333
146,0.947916667,1,67,64,73,0.473958333
147.25,0.235416667,1,60,64,73.625,0.117708333
147.5,0.235416667,1,62,64,73.75,0.117708333
147.75,0.235416667,1,63,64,73.875,0.117708333
148,0.235416667,1,65,64,74,0.117708333
148.25,0.235416667,1,67,64,74.125,0.117708333
148.5,0.710416667,1,68,64,74.25,0.355208333
149.25,0.235416667,1,62,64,74.625,0.117708333
149.5,0.235416667,1,63,64,74.75,0.117708333
149.75,0.235416667,1,65,64,74.875,0.117708333
150,0.235416667,1,67,64,75,0.117708333
150.25,0.235416667,1,69,64,75.125,0.117708333
150.5,0.710416667,1,70,64,75.25,0.355208333
151.25,0.235416667,1,63,64,75.625,0.117708333
151.5,0.235416667,1,65,64,75.75,0.117708333
151.75,0.235416667,1,67,64,75.875,0.117708333
152,0.235416667,1,68,64,76,0.117708333
152.25,0.235416667,1,67,64,76.125,0.117708333
152.5,0.235416667,1,65,64,76.25,0.117708333
152.75,0.235416667,1,63,64,76.375,0.117708333
153,0.472916667,1,62,64,76.5,0.236458333
153.5,0.235416667,1,72,64,76.75,0.117708333
153.75,0.235416667,1,71,64,76.875,0.117708333
154,0.947916667,1,72,64,77,0.473958333
156.5,0.472916667,1,77,64,78.25,0.236458333
157,0.472916667,1,75,64,78.5,0.236458333
157.5,0.472916667,1,74,64,78.75,0.236458333
158.5,0.472916667,1,68,64,79.25,0.236458333
159,0.472916667,1,67,64,79.5,0.236458333
159.5,0.472916667,1,65,64,79.75,0.236458333
160,0.472916667,1,67,64,80,0.236458333
160.5,0.235416667,1,65,64,80.25,0.117708333
160.75,0.235416667,1,63,64,80.375,0.117708333
161,0.472916667,1,65,64,80.5,0.236458333
161.5,0.472916667,1,62,64,80.75,0.236458333
162,0.947916667,1,67,64,81,0.473958333
163.5,0.472916667,1,71,64,81.75,0.236458333
164,0.472916667,1,72,64,82,0.236458333
164.5,0.235416667,1,72,64,82.25,0.117708333
164.75,0.235416667,1,71,64,82.375,0.117708333
165,0.472916667,1,72,64,82.5,0.236458333
165.5,0.472916667,1,67,64,82.75,0.236458333
166,0.947916667,1,68,64,83,0.473958333
167.5,0.472916667,1,69,64,83.75,0.236458333
168,0.472916667,1,70,64,84,0.236458333
168.5,0.235416667,1,70,64,84.25,0.117708333
168.75,0.235416667,1,69,64,84.375,0.117708333
169,0.472916667,1,70,64,84.5,0.236458333
169.5,0.472916667,1,65,64,84.75,0.236458333
170,0.947916667,1,67,64,85,0.473958333
171.5,0.472916667,1,67,64,85.75,0.236458333
172,0.472916667,1,68,64,86,0.236458333
172.5,0.472916667,1,68,64,86.25,0.236458333
173,0.472916667,1,67,64,86.5,0.236458333
173.5,0.472916667,1,65,64,86.75,0.236458333
174.5,0.472916667,1,56,64,87.25,0.236458333
175,0.472916667,1,58,64,87.5,0.236458333
175.5,0.472916667,1,60,64,87.75,0.236458333
176.5,0.235416667,1,56,64,88.25,0.117708333
176.75,0.235416667,1,55,64,88.375,0.117708333
177,0.472916667,1,56,64,88.5,0.236458333
177.5,0.472916667,1,53,64,88.75,0.236458333
178,0.472916667,1,58,64,89,0.236458333
178.5,0.472916667,1,60,64,89.25,0.236458333
179,0.472916667,1,58,64,89.5,0.236458333
179.5,0.472916667,1,56,64,89.75,0.236458333
180,0.472916667,1,58,64,90,0.236458333
180.5,0.472916667,1,55,64,90.25,0.236458333
181,0.472916667,1,53,64,90.5,0.236458333
181.5,0.472916667,1,51,64,90.75,0.236458333
182,0.472916667,1,53,64,91,0.236458333
182.5,0.472916667,1,61,64,91.25,0.236458333
183,0.472916667,1,60,64,91.5,0.236458333
183.5,0.472916667,1,58,64,91.75,0.236458333
184,0.472916667,1,60,64,92,0.236458333
184.5,0.472916667,1,56,64,92.25,0.236458333
185,0.472916667,1,55,64,92.5,0.236458333
185.5,0.472916667,1,53,64,92.75,0.236458333
186,0.472916667,1,55,64,93,0.236458333
186.5,0.235416667,1,67,64,93.25,0.117708333
186.75,0.235416667,1,66,64,93.375,0.117708333
187,0.472916667,1,67,64,93.5,0.236458333
187.5,0.472916667,1,60,64,93.75,0.236458333
188,0.472916667,1,63,64,94,0.236458333
188.5,0.235416667,1,67,64,94.25,0.117708333
188.75,0.235416667,1,66,64,94.375,0.117708333
189,0.472916667,1,67,64,94.5,0.236458333
189.5,0.472916667,1,69,64,94.75,0.236458333
190,0.472916667,1,62,64,95,0.236458333
190.5,0.235416667,1,67,64,95.25,0.117708333
190.75,0.235416667,1,66,64,95.375,0.117708333
191,0.472916667,1,67,64,95.5,0.236458333
191.5,0.472916667,1,69,64,95.75,0.236458333
192,0.235416667,1,60,64,96,0.117708333
192.25,0.235416667,1,62,64,96.125,0.117708333
192.5,0.947916667,1,63,64,96.25,0.473958333
193.5,0.235416667,1,62,64,96.75,0.117708333
193.75,0.235416667,1,60,64,96.875,0.117708333
194,0.497916667,1,58,64,97,0.248958333
195.25,0.235416667,1,62,64,97.625,0.117708333
195.5,0.235416667,1,64,64,97.75,0.117708333
195.75,0.235416667,1,66,64,97.875,0.117708333
196,0.235416667,1,67,64,98,0.117708333
196.25,0.235416667,1,69,64,98.125,0.117708333
196.5,0.710416667,1,70,64,98.25,0.355208333
197.25,0.235416667,1,64,64,98.625,0.117708333
197.5,0.235416667,1,65,64,98.75,0.117708333
197.75,0.235416667,1,67,64,98.875,0.117708333
198,0.235416667,1,69,64,99,0.117708333
198.25,0.235416667,1,70,64,99.125,0.117708333
198.5,0.710416667,1,72,64,99.25,0.355208333
199.25,0.235416667,1,66,64,99.625,0.117708333
199.5,0.235416667,1,67,64,99.75,0.117708333
199.75,0.235416667,1,69,64,99.875,0.117708333
200,0.472916667,1,70,64,100,0.236458333
200.5,0.235416667,1,63,64,100.25,0.117708333
200.75,0.235416667,1,62,64,100.375,0.117708333
201,0.472916667,1,63,64,100.5,0.236458333
201.5,0.472916667,1,55,64,100.75,0.236458333
202,0.472916667,1,56,64,101,0.236458333
202.5,0.235416667,1,65,64,101.25,0.117708333
202.75,0.235416667,1,63,64,101.375,0.117708333
203,0.472916667,1,65,64,101.5,0.236458333
203.5,0.472916667,1,57,64,101.75,0.236458333
204,0.472916667,1,58,64,102,0.236458333
204.5,0.235416667,1,67,64,102.25,0.117708333
204.75,0.235416667,1,65,64,102.375,0.117708333
205,0.472916667,1,67,64,102.5,0.236458333
205.5,0.472916667,1,58,64,102.75,0.236458333
206,0.235416667,1,60,64,103,0.117708333
206.25,0.235416667,1,65,64,103.125,0.117708333
206.5,0.235416667,1,63,64,103.25,0.117708333
206.75,0.235416667,1,62,64,103.375,0.117708333
207,0.235416667,1,60,64,103.5,0.117708333
207.25,0.235416667,1,58,64,103.625,0.117708333
207.5,0.235416667,1,56,64,103.75,0.117708333
207.75,0.235416667,1,55,64,103.875,0.117708333
208,0.472916667,1,53,64,104,0.236458333
208.5,0.472916667,1,68,64,104.25,0.236458333
209,0.472916667,1,67,64,104.5,0.236458333
209.5,0.472916667,1,65,64,104.75,0.236458333
210,0.472916667,1,63,64,105,0.236458333
210.5,0.472916667,1,62,64,105.25,0.236458333
211,0.472916667,1,63,64,105.5,0.236458333
211.5,0.472916667,1,65,64,105.75,0.236458333
212,0.472916667,1,59,64,106,0.236458333
212.5,0.472916667,1,60,64,106.25,0.236458333
213,0.472916667,1,62,64,106.5,0.236458333
213.5,0.472916667,1,59,64,106.75,0.236458333
214,0.947916667,1,60,64,107,0.473958333
215.5,0.472916667,1,64,64,107.75,0.236458333
216,0.472916667,1,65,64,108,0.236458333
216.5,0.235416667,1,65,64,108.25,0.117708333
216.75,0.235416667,1,64,64,108.375,0.117708333
217,0.472916667,1,65,64,108.5,0.236458333
217.5,0.472916667,1,60,64,108.75,0.236458333
218,0.947916667,1,62,64,109,0.473958333
219.5,0.472916667,1,62,64,109.75,0.236458333
220,0.472916667,1,63,64,110,0.236458333
220.5,0.235416667,1,63,64,110.25,0.117708333
220.75,0.235416667,1,62,64,110.375,0.117708333
221,0.472916667,1,63,64,110.5,0.236458333
221.5,0.472916667,1,58,64,110.75,0.236458333
222,2.372916667,1,60,64,111,1.186458333
224.5,0.235416667,1,62,64,112.25,0.117708333
224.75,0.235416667,1,63,64,112.375,0.117708333
225,0.235416667,1,65,64,112.5,0.117708333
225.25,0.235416667,1,63,64,112.625,0.117708333
225.5,0.235416667,1,65,64,112.75,0.117708333
225.75,0.235416667,1,62,64,112.875,0.117708333
226,0.497916667,1,59,64,113,0.248958333
227.5,0.472916667,1,59,64,113.75,0.236458333
228,0.497916667,1,60,64,114,0.248958333
229.5,0.472916667,1,63,64,114.75,0.236458333
230,0.497916667,1,62,64,115,0.248958333
231.5,0.472916667,1,65,64,115.75,0.236458333
232,0.497916667,1,65,64,116,0.248958333
233.5,0.472916667,1,65,64,116.75,0.236458333
234,0.472916667,1,63,64,117,0.236458333
234.5,0.472916667,1,68,64,117.25,0.236458333
235,0.472916667,1,67,64,117.5,0.236458333
235.5,0.472916667,1,65,64,117.75,0.236458333
236,0.472916667,1,63,64,118,0.236458333
236.5,0.472916667,1,62,64,118.25,0.236458333
237,0.472916667,1,63,64,118.5,0.236458333
237.5,0.472916667,1,65,64,118.75,0.236458333
238,0.472916667,1,59,64,119,0.236458333
238.5,0.472916667,1,60,64,119.25,0.236458333
239,0.472916667,1,62,64,119.5,0.236458333
239.5,0.472916667,1,59,64,119.75,0.236458333
240,0.472916667,1,59,64,120,0.236458333
240.5,0.472916667,1,60,64,120.25,0.236458333
241.5,0.472916667,1,60,64,120.75,0.236458333
242,0.235416667,1,65,64,121,0.117708333
242.25,0.235416667,1,62,64,121.125,0.117708333
242.5,0.235416667,1,63,64,121.25,0.117708333
242.75,0.710416667,1,60,64,121.375,0.355208333
243.5,0.472916667,1,59,64,121.75,0.236458333
244,0.947916667,1,60,64,122,0.473958333
245.5,0.472916667,1,64,64,122.75,0.236458333
246,0.947916667,1,65,64,123,0.473958333
247.5,0.472916667,1,65,64,123.75,0.236458333
248,0.472916667,1,65,64,124,0.236458333
248.5,0.235416667,1,63,64,124.25,0.117708333
248.75,0.235416667,1,62,64,124.375,0.117708333
249,0.472916667,1,63,64,124.5,0.236458333
249.5,0.472916667,1,65,64,124.75,0.236458333
249.5,0.472916667,1,68,64,124.75,0.236458333
250,0.497916667,1,59,64,125,0.248958333
250,0.497916667,1,62,64,125,0.248958333
251,0.497916667,1,59,64,125.5,0.248958333
251,0.497916667,1,62,64,125.5,0.248958333
252,1.897916667,1,55,64,126,0.948958333
252,1.897916667,1,60,64,126,0.948958333
280.5,0.235416667,2,60,64,140.25,0.117708333
280.75,0.235416667,2,59,64,140.375,0.117708333
281,0.472916667,2,60,64,140.5,0.236458333
281.5,0.472916667,2,55,64,140.75,0.236458333
282,0.472916667,2,56,64,141,0.236458333
282.5,0.235416667,2,60,64,141.25,0.117708333
282.75,0.235416667,2,59,64,141.375,0.117708333
283,0.472916667,2,60,64,141.5,0.236458333
283.5,0.472916667,2,62,64,141.75,0.236458333
284,0.472916667,2,55,64,142,0.236458333
284.5,0.235416667,2,60,64,142.25,0.117708333
284.75,0.235416667,2,59,64,142.375,0.117708333
285,0.472916667,2,60,64,142.5,0.236458333
285.5,0.472916667,2,62,64,142.75,0.236458333
286,0.235416667,2,53,64,143,0.117708333
286.25,0.235416667,2,55,64,143.125,0.117708333
286.5,0.947916667,2,56,64,143.25,0.473958333
287.5,0.235416667,2,55,64,143.75,0.117708333
287.75,0.235416667,2,53,64,143.875,0.117708333
288,0.235416667,2,51,64,144,0.117708333
288.25,0.235416667,2,60,64,144.125,0.117708333
288.5,0.235416667,2,59,64,144.25,0.117708333
288.75,0.235416667,2,57,64,144.375,0.117708333
289,0.235416667,2,55,64,144.5,0.117708333
289.25,0.235416667,2,53,64,144.625,0.117708333
289.5,0.235416667,2,51,64,144.75,0.117708333
289.75,0.235416667,2,50,64,144.875,0.117708333
290,0.235416667,2,48,64,145,0.117708333
290.25,0.235416667,2,50,64,145.125,0.117708333
290.5,0.235416667,2,51,64,145.25,0.117708333
290.75,0.235416667,2,50,64,145.375,0.117708333
291,0.235416667,2,48,64,145.5,0.117708333
291.25,0.235416667,2,46,64,145.625,0.117708333
291.5,0.235416667,2,44,64,145.75,0.117708333
291.75,0.235416667,2,43,64,145.875,0.117708333
292,0.235416667,2,41,64,146,0.117708333
292.25,0.235416667,2,58,64,146.125,0.117708333
292.5,0.235416667,2,56,64,146.25,0.117708333
292.75,0.235416667,2,55,64,146.375,0.117708333
293,0.235416667,2,53,64,146.5,0.117708333
293.25,0.235416667,2,51,64,146.625,0.117708333
293.5,0.235416667,2,50,64,146.75,0.117708333
293.75,0.235416667,2,48,64,146.875,0.117708333
294,0.235416667,2,46,64,147,0.117708333
294.25,0.235416667,2,48,64,147.125,0.117708333
294.5,0.235416667,2,50,64,147.25,0.117708333
294.75,0.235416667,2,48,64,147.375,0.117708333
295,0.235416667,2,46,64,147.5,0.117708333
295.25,0.235416667,2,44,64,147.625,0.117708333
295.5,0.235416667,2,43,64,147.75,0.117708333
295.75,0.235416667,2,41,64,147.875,0.117708333
296,0.235416667,2,39,64,148,0.117708333
296.25,0.235416667,2,56,64,148.125,0.117708333
296.5,0.235416667,2,55,64,148.25,0.117708333
296.75,0.235416667,2,53,64,148.375,0.117708333
297,0.235416667,2,51,64,148.5,0.117708333
297.25,0.235416667,2,49,64,148.625,0.117708333
297.5,0.235416667,2,48,64,148.75,0.117708333
297.75,0.235416667,2,46,64,148.875,0.117708333
298,0.472916667,2,44,64,149,0.236458333
298.5,0.472916667,2,60,64,149.25,0.236458333
299,0.472916667,2,58,64,149.5,0.236458333
299.5,0.472916667,2,56,64,149.75,0.236458333
300,0.472916667,2,55,64,150,0.236458333
300.5,0.472916667,2,53,64,150.25,0.236458333
301,0.472916667,2,55,64,150.5,0.236458333
301.5,0.472916667,2,56,64,150.75,0.236458333
302,0.472916667,2,50,64,151,0.236458333
302.5,0.472916667,2,51,64,151.25,0.236458333
303,0.472916667,2,53,64,151.5,0.236458333
303.5,0.472916667,2,50,64,151.75,0.236458333
304,0.472916667,2,51,64,152,0.236458333
304.5,0.472916667,2,56,64,152.25,0.236458333
305,0.472916667,2,55,64,152.5,0.236458333
305.5,0.472916667,2,53,64,152.75,0.236458333
306,0.472916667,2,55,64,153,0.236458333
306.5,0.472916667,2,51,64,153.25,0.236458333
307,0.472916667,2,50,64,153.5,0.236458333
307.5,0.472916667,2,48,64,153.75,0.236458333
308,0.472916667,2,50,64,154,0.236458333
308.5,0.472916667,2,58,64,154.25,0.236458333
309,0.472916667,2,56,64,154.5,0.236458333
309.5,0.472916667,2,55,64,154.75,0.236458333
310,0.472916667,2,56,64,155,0.236458333
310.5,0.472916667,2,53,64,155.25,0.236458333
311,0.472916667,2,51,64,155.5,0.236458333
311.5,0.472916667,2,50,64,155.75,0.236458333
312,0.497916667,2,51,64,156,0.248958333
314.5,0.472916667,2,48,64,157.25,0.236458333
315,0.472916667,2,46,64,157.5,0.236458333
315.5,0.472916667,2,45,64,157.75,0.236458333
316.5,0.472916667,2,51,64,158.25,0.236458333
317,0.472916667,2,50,64,158.5,0.236458333
317.5,0.472916667,2,48,64,158.75,0.236458333
318,0.472916667,2,50,64,159,0.236458333
318.5,0.235416667,2,48,64,159.25,0.117708333
318.75,0.235416667,2,46,64,159.375,0.117708333
319,0.472916667,2,48,64,159.5,0.236458333
319.5,0.472916667,2,50,64,159.75,0.236458333
320,0.472916667,2,43,64,160,0.236458333
320.5,0.235416667,2,58,64,160.25,0.117708333
320.75,0.235416667,2,57,64,160.375,0.117708333
321,0.472916667,2,58,64,160.5,0.236458333
321.5,0.472916667,2,50,64,160.75,0.236458333
322,0.472916667,2,51,64,161,0.236458333
322.5,0.235416667,2,60,64,161.25,0.117708333
322.75,0.235416667,2,58,64,161.375,0.117708333
323,0.472916667,2,60,64,161.5,0.236458333
323.5,0.472916667,2,52,64,161.75,0.236458333
324,0.472916667,2,53,64,162,0.236458333
324.5,0.235416667,2,62,64,162.25,0.117708333
324.75,0.235416667,2,60,64,162.375,0.117708333
325,0.472916667,2,62,64,162.5,0.236458333
325.5,0.472916667,2,54,64,162.75,0.236458333
326,0.947916667,2,55,64,163,0.473958333
327.25,0.235416667,2,43,64,163.625,0.117708333
327.5,0.235416667,2,45,64,163.75,0.117708333
327.75,0.235416667,2,47,64,163.875,0.117708333
328,0.235416667,2,48,64,164,0.117708333
328.25,0.235416667,2,50,64,164.125,0.117708333
328.5,0.710416667,2,51,64,164.25,0.355208333
329.25,0.235416667,2,45,64,164.625,0.117708333
329.5,0.235416667,2,46,64,164.75,0.117708333
329.75,0.235416667,2,48,64,164.875,0.117708333
330,0.235416667,2,50,64,165,0.117708333
330.25,0.235416667,2,51,64,165.125,0.117708333
330.5,0.710416667,2,53,64,165.25,0.355208333
331.25,0.235416667,2,47,64,165.625,0.117708333
331.5,0.235416667,2,48,64,165.75,0.117708333
331.75,0.235416667,2,50,64,165.875,0.117708333
332,0.497916667,2,51,64,166,0.248958333
333.5,0.472916667,2,52,64,166.75,0.236458333
334,0.472916667,2,53,64,167,0.236458333
334.5,0.472916667,2,41,64,167.25,0.236458333
335,0.472916667,2,39,64,167.5,0.236458333
335.5,0.472916667,2,38,64,167.75,0.236458333
336.5,0.472916667,2,44,64,168.25,0.236458333
337,0.472916667,2,43,64,168.5,0.236458333
337.5,0.472916667,2,41,64,168.75,0.236458333
338,0.472916667,2,43,64,169,0.236458333
338.5,0.235416667,2,41,64,169.25,0.117708333
338.75,0.235416667,2,39,64,169.375,0.117708333
339,0.472916667,2,41,64,169.5,0.236458333
339.5,0.472916667,2,43,64,169.75,0.236458333
340,0.235416667,2,48,64,170,0.117708333
340.25,0.235416667,2,50,64,170.125,0.117708333
340.5,0.235416667,2,51,64,170.25,0.117708333
340.75,0.235416667,2,50,64,170.375,0.117708333
341,0.235416667,2,48,64,170.5,0.117708333
341.25,0.235416667,2,46,64,170.625,0.117708333
341.5,0.235416667,2,44,64,170.75,0.117708333
341.75,0.235416667,2,43,64,170.875,0.117708333
342,0.235416667,2,41,64,171,0.117708333
342.25,0.235416667,2,58,64,171.125,0.117708333
342.5,0.235416667,2,56,64,171.25,0.117708333
342.75,0.235416667,2,55,64,171.375,0.117708333
343,0.235416667,2,53,64,171.5,0.117708333
343.25,0.235416667,2,51,64,171.625,0.117708333
343.5,0.235416667,2,50,64,171.75,0.117708333
343.75,0.235416667,2,48,64,171.875,0.117708333
344,0.235416667,2,46,64,172,0.117708333
344.25,0.235416667,2,48,64,172.125,0.117708333
344.5,0.235416667,2,50,64,172.25,0.117708333
344.75,0.235416667,2,48,64,172.375,0.117708333
345,0.235416667,2,46,64,172.5,0.117708333
345.25,0.235416667,2,44,64,172.625,0.117708333
345.5,0.235416667,2,43,64,172.75,0.117708333
345.75,0.235416667,2,41,64,172.875,0.117708333
346,0.235416667,2,39,64,173,0.117708333
346.25,0.235416667,2,56,64,173.125,0.117708333
346.5,0.235416667,2,55,64,173.25,0.117708333
346.75,0.235416667,2,53,64,173.375,0.117708333
347,0.235416667,2,51,64,173.5,0.117708333
347.25,0.235416667,2,50,64,173.625,0.117708333
347.5,0.235416667,2,48,64,173.75,0.117708333
347.75,0.235416667,2,46,64,173.875,0.117708333
348,0.235416667,2,44,64,174,0.117708333
348.25,0.235416667,2,46,64,174.125,0.117708333
348.5,0.235416667,2,48,64,174.25,0.117708333
348.75,0.235416667,2,46,64,174.375,0.117708333
349,0.235416667,2,44,64,174.5,0.117708333
349.25,0.235416667,2,43,64,174.625,0.117708333
349.5,0.235416667,2,41,64,174.75,0.117708333
349.75,0.235416667,2,39,64,174.875,0.117708333
350,0.235416667,2,38,64,175,0.117708333
350.25,0.235416667,2,55,64,175.125,0.117708333
350.5,0.235416667,2,53,64,175.25,0.117708333
350.75,0.235416667,2,51,64,175.375,0.117708333
351,0.235416667,2,50,64,175.5,0.117708333
351.25,0.235416667,2,48,64,175.625,0.117708333
351.5,0.235416667,2,47,64,175.75,0.117708333
351.75,0.235416667,2,45,64,175.875,0.117708333
352,0.947916667,2,43,64,176,0.473958333
354.25,0.235416667,2,43,64,177.125,0.117708333
354.5,0.235416667,2,45,64,177.25,0.117708333
354.75,0.235416667,2,47,64,177.375,0.117708333
355,0.235416667,2,48,64,177.5,0.117708333
355.25,0.235416667,2,50,64,177.625,0.117708333
355.5,0.235416667,2,51,64,177.75,0.117708333
355.75,0.235416667,2,53,64,177.875,0.117708333
356,0.235416667,2,55,64,178,0.117708333
356.25,0.235416667,2,53,64,178.125,0.117708333
356.5,0.235416667,2,56,64,178.25,0.117708333
356.75,0.235416667,2,55,64,178.375,0.117708333
357,0.235416667,2,53,64,178.5,0.117708333
357.25,0.235416667,2,51,64,178.625,0.117708333
357.5,0.235416667,2,50,64,178.75,0.117708333
357.75,0.235416667,2,48,64,178.875,0.117708333
358,0.472916667,2,47,64,179,0.236458333
358.5,0.235416667,2,48,64,179.25,0.117708333
358.75,0.235416667,2,47,64,179.375,0.117708333
359,0.472916667,2,48,64,179.5,0.236458333
359.5,0.472916667,2,43,64,179.75,0.236458333
360,0.472916667,2,44,64,180,0.236458333
360.5,0.235416667,2,48,64,180.25,0.117708333
360.75,0.235416667,2,47,64,180.375,0.117708333
361,0.472916667,2,48,64,180.5,0.236458333
361.5,0.472916667,2,50,64,180.75,0.236458333
362,0.472916667,2,43,64,181,0.236458333
362.5,0.235416667,2,48,64,181.25,0.117708333
362.75,0.235416667,2,47,64,181.375,0.117708333
363,0.472916667,2,48,64,181.5,0.236458333
363.5,0.472916667,2,50,64,181.75,0.236458333
364,0.235416667,2,41,64,182,0.117708333
364.25,0.235416667,2,43,64,182.125,0.117708333
364.5,0.947916667,2,44,64,182.25,0.473958333
365.5,0.235416667,2,43,64,182.75,0.117708333
365.75,0.235416667,2,41,64,182.875,0.117708333
366,0.947916667,2,39,64,183,0.473958333
367.5,0.472916667,2,51,64,183.75,0.236458333
368,0.472916667,2,50,64,184,0.236458333
368.5,0.472916667,2,48,64,184.25,0.236458333
369,0.472916667,2,55,64,184.5,0.236458333
369.5,0.472916667,2,43,64,184.75,0.236458333
370,9.497916667,2,48,64,185,4.748958333